<svg xmlns="http://www.w3.org/2000/svg" width="24" height="24" fill="none" viewBox="0 0 24 24">
    <path fill="#41416E"
        d="M13.5 12c0 .83-.67 1.5-1.5 1.5s-1.5-.67-1.5-1.5.67-1.5 1.5-1.5 1.5.67 1.5 1.5Zm8 0c0 5.24-4.26 9.5-9.5 9.5S2.5 17.24 2.5 12 6.76 2.5 12 2.5s9.5 4.26 9.5 9.5Zm-4.81-4.69c-.38-.37-.91-.52-1.43-.39l-4.05 1.01a4.512 4.512 0 0 0-3.28 3.28l-1.01 4.05c-.13.52.02 1.05.39 1.43.29.28.67.44 1.06.44.12 0 .25-.02.37-.05l4.05-1.01a4.512 4.512 0 0 0 3.28-3.28l1.01-4.05c.13-.52-.02-1.05-.39-1.43Z" />
</svg>