<svg xmlns="http://www.w3.org/2000/svg" width="24" height="24" fill="none" viewBox="0 0 24 24">
    <path fill="#41416E"
        d="M20.33 9.78h-.03a1.207 1.207 0 0 1-1.113-.757.01.01 0 0 0-.007-.003 1.218 1.218 0 0 1 .26-1.31l.03-.03a1.672 1.672 0 0 0 0-2.36l-.79-.78a1.672 1.672 0 0 0-2.36 0l-.01.02a1.233 1.233 0 0 1-1.33.25 1.192 1.192 0 0 1-.76-1.11v-.03A1.662 1.662 0 0 0 12.56 2h-1.12a1.664 1.664 0 0 0-1.66 1.67v.03a1.2 1.2 0 0 1-.75 1.11 1.2 1.2 0 0 1-1.33-.25l-.02-.02a1.672 1.672 0 0 0-2.36 0l-.79.78a1.672 1.672 0 0 0 0 2.36l.03.03a1.217 1.217 0 0 1-.86 2.07h-.03A1.673 1.673 0 0 0 2 11.45v1.11a1.673 1.673 0 0 0 1.67 1.67h.03a1.182 1.182 0 0 1 1.11.75 1.248 1.248 0 0 1-.25 1.33l-.02.01a1.684 1.684 0 0 0 0 2.37l.78.78a1.672 1.672 0 0 0 2.36 0l.02-.02a1.186 1.186 0 0 1 1.31-.26 1.215 1.215 0 0 1 .77 1.12v.03A1.656 1.656 0 0 0 11.44 22h1.12a1.656 1.656 0 0 0 1.66-1.66v-.03a1.215 1.215 0 0 1 .77-1.12 1.186 1.186 0 0 1 1.31.26l.02.02a1.672 1.672 0 0 0 2.36 0l.78-.78a1.684 1.684 0 0 0 0-2.37l-.02-.01a1.247 1.247 0 0 1 .188-1.877c.199-.134.433-.205.672-.203h.03A1.673 1.673 0 0 0 22 12.56v-1.11a1.673 1.673 0 0 0-1.67-1.67ZM12 15.5a3.5 3.5 0 1 1 0-7 3.5 3.5 0 0 1 0 7Z" />
</svg>