<svg xmlns="http://www.w3.org/2000/svg" width="24" height="24" fill="none" viewBox="0 0 24 24">
    <path fill="#000000"
        d="M8.293 8.707a.999.999 0 1 1 1.414-1.414L11 8.586V4a1 1 0 1 1 2 0v4.586l1.293-1.293a.999.999 0 1 1 1.414 1.414l-3 3a.997.997 0 0 1-1.414 0l-3-3ZM17 10a1 1 0 1 0 0 2c1.654 0 3 1.346 3 3v1c0 1.654-1.346 3-3 3H7c-1.654 0-3-1.346-3-3v-1c0-1.654 1.346-3 3-3a1 1 0 1 0 0-2c-2.757 0-5 2.243-5 5v1c0 2.757 2.243 5 5 5h10c2.757 0 5-2.243 5-5v-1c0-2.757-2.243-5-5-5Zm1 5a1 1 0 1 0-2 0 1 1 0 0 0 2 0Z" />
</svg>