<svg xmlns="http://www.w3.org/2000/svg" width="24" height="24" fill="none" viewBox="0 0 24 24">
    <path fill="#41416E"
        d="M12 2C6.486 2 2 6.486 2 12s4.486 10 10 10 10-4.486 10-10S17.514 2 12 2Zm0 18c-4.411 0-8-3.589-8-8s3.589-8 8-8 8 3.589 8 8-3.589 8-8 8Zm3.141-13.565L11.086 7.45a4.992 4.992 0 0 0-3.638 3.638l-1.014 4.055a1.984 1.984 0 0 0 .527 1.9 1.985 1.985 0 0 0 1.899.524l4.055-1.014a4.992 4.992 0 0 0 3.638-3.638l1.014-4.055a1.985 1.985 0 0 0-.527-1.9 1.987 1.987 0 0 0-1.899-.524Zm.484 1.94-1.014 4.054a2.997 2.997 0 0 1-2.183 2.184l-4.055 1.013 1.014-4.054a2.997 2.997 0 0 1 2.183-2.184l4.055-1.013ZM12 10.5a1.5 1.5 0 1 1-.001 3.001A1.5 1.5 0 0 1 12 10.5Z" />
</svg>