<svg xmlns="http://www.w3.org/2000/svg" width="24" height="24" fill="none" viewBox="0 0 24 24">
    <path fill="#000000"
        d="m20.135 7.12-5-4.02a5.034 5.034 0 0 0-6.27 0l-5 4.02A4.975 4.975 0 0 0 2 11.014v5.994a5.003 5.003 0 0 0 5 4.996h3v-4.997a2 2 0 0 1 4 0v4.997h3c2.757 0 5-2.24 5-4.996v-5.994c0-1.52-.68-2.94-1.865-3.894ZM20 17.008a3.001 3.001 0 0 1-3 2.995h-1v-2.996a4.002 4.002 0 0 0-4-3.997c-2.206 0-4 1.793-4 3.997v2.996H7a3 3 0 0 1-3-2.995v-5.994c0-.912.408-1.763 1.118-2.334l5-4.021a3.023 3.023 0 0 1 3.764 0l5 4.02a2.981 2.981 0 0 1 1.119 2.335v5.994H20Z" />
</svg>