<svg xmlns="http://www.w3.org/2000/svg" width="24" height="24" fill="none" viewBox="0 0 24 24">
    <path fill="#000000"
        d="M12 16a4 4 0 1 1 0-8 4 4 0 0 1 0 8Zm0-6a2 2 0 1 0 0 4 2 2 0 0 0 0-4Zm.5 12h-1A2.5 2.5 0 0 1 9 19.5a.107.107 0 0 0-.068-.109c-.049-.024-.106.028-.106.028a2.51 2.51 0 0 1-3.543.009l-.706-.707a2.5 2.5 0 0 1 .006-3.54.1.1 0 0 0 .02-.123A.13.13 0 0 0 4.5 15 2.5 2.5 0 0 1 2 12.5v-1A2.5 2.5 0 0 1 4.5 9a.113.113 0 0 0 .108-.064.087.087 0 0 0-.022-.1 2.508 2.508 0 0 1-.012-3.549l.708-.709a2.507 2.507 0 0 1 3.535 0 .1.1 0 0 0 .126.032C9 4.58 9 4.5 9 4.5A2.5 2.5 0 0 1 11.5 2h1A2.5 2.5 0 0 1 15 4.5s-.005.1.05.12a.123.123 0 0 0 .118-.025 2.487 2.487 0 0 1 1.781-.75 2.48 2.48 0 0 1 1.768.732l.7.7a2.5 2.5 0 0 1 0 3.535c-.014.021-.072.064-.049.124a.085.085 0 0 0 .07.065A2.51 2.51 0 0 1 22 11.5v1a2.5 2.5 0 0 1-2.5 2.5c-.06 0-.114 0-.133.049-.019.049-.009.08.04.121a2.5 2.5 0 0 1 .016 3.551l-.7.706a2.507 2.507 0 0 1-3.535 0s-.056-.068-.112-.048a.1.1 0 0 0-.071.092A2.511 2.511 0 0 1 12.5 22Zm-2.829-4.468.044.018A2.1 2.1 0 0 1 11 19.472a.506.506 0 0 0 .5.528h1a.5.5 0 0 0 .5-.5 2.125 2.125 0 0 1 1.31-1.961 2.084 2.084 0 0 1 2.265.451.505.505 0 0 0 .729.022l.7-.7a.498.498 0 0 0 0-.708 2.125 2.125 0 0 1-.475-2.265l.018-.047.006-.014A2.074 2.074 0 0 1 19.474 13a.507.507 0 0 0 .526-.5v-1a.5.5 0 0 0-.5-.5 2.085 2.085 0 0 1-1.952-1.291l-.019-.046a2.066 2.066 0 0 1 .463-2.239.509.509 0 0 0 .02-.728l-.7-.7a.5.5 0 0 0-.708.001 2.128 2.128 0 0 1-2.3.464A2.076 2.076 0 0 1 13 4.526.508.508 0 0 0 12.5 4h-1a.5.5 0 0 0-.5.5 2.1 2.1 0 0 1-3.575 1.51.506.506 0 0 0-.725-.022l-.712.712a.5.5 0 0 0 0 .707 2.089 2.089 0 0 1 .472 2.284c-.027.066-.06.13-.1.189A2.106 2.106 0 0 1 4.528 11a.506.506 0 0 0-.528.5v1a.5.5 0 0 0 .5.5 2.083 2.083 0 0 1 1.943 1.273l.006.014a2.1 2.1 0 0 1-.444 2.299.51.51 0 0 0-.123.558.486.486 0 0 0 .109.163l.706.706a.5.5 0 0 0 .707 0 2.092 2.092 0 0 1 2.267-.481Z" />
</svg>