<svg xmlns="http://www.w3.org/2000/svg" width="24" height="24" fill="none" viewBox="0 0 24 24">
    <path fill="#E7400E"
        d="M21 5h-3.559a1 1 0 0 1-.949-.683l-.316-.95A2 2 0 0 0 14.279 2H9.72c-.862 0-1.625.55-1.897 1.368l-.316.948A1 1 0 0 1 6.558 5H3a1 1 0 1 0 0 2h1.065l.751 11.266A4.01 4.01 0 0 0 8.807 22h6.387a4.01 4.01 0 0 0 3.991-3.734L19.936 7H21a1 1 0 1 0 0-2ZM9.721 4l4.559-.001.316.95c.006.018.015.033.022.051H9.384c.006-.018.016-.034.022-.052L9.721 4Zm7.468 14.133A2.005 2.005 0 0 1 15.193 20H8.806a2.006 2.006 0 0 1-1.996-1.867L6.069 7h.49c.107 0 .212-.014.317-.025.043.006.08.025.125.025h10c.044 0 .082-.02.125-.025.105.011.209.025.317.025h.49l-.744 11.133ZM15 11v5a1 1 0 1 1-2 0v-5a1 1 0 1 1 2 0Zm-4 0v5a1 1 0 1 1-2 0v-5a1 1 0 1 1 2 0Z" />
</svg>